<svg xmlns="http://www.w3.org/2000/svg" viewBox="0 0 908 120" width="908" height="120">
<rect x="2" y="3" width="20" height="20" fill="#1d4d20" opacity="0.35"/>
<rect x="0" y="0" width="20" height="20" rx="3" fill="#2f7d32"/>
<rect x="2" y="25" width="20" height="20" fill="#1d4d20" opacity="0.35"/>
<rect x="0" y="22" width="20" height="20" rx="3" fill="#2f7d32"/>
<rect x="2" y="47" width="20" height="20" fill="#1d4d20" opacity="0.35"/>
<rect x="0" y="44" width="20" height="20" rx="3" fill="#2f7d32"/>
<rect x="2" y="69" width="20" height="20" fill="#1d4d20" opacity="0.35"/>
<rect x="0" y="66" width="20" height="20" rx="3" fill="#2f7d32"/>
<rect x="2" y="91" width="20" height="20" fill="#1d4d20" opacity="0.35"/>
<rect x="0" y="88" width="20" height="20" rx="3" fill="#2f7d32"/>
<rect x="24" y="91" width="20" height="20" fill="#1d4d20" opacity="0.35"/>
<rect x="22" y="88" width="20" height="20" rx="3" fill="#2f7d32"/>
<rect x="46" y="91" width="20" height="20" fill="#1d4d20" opacity="0.35"/>
<rect x="44" y="88" width="20" height="20" rx="3" fill="#2f7d32"/>
<rect x="68" y="91" width="20" height="20" fill="#1d4d20" opacity="0.35"/>
<rect x="66" y="88" width="20" height="20" rx="3" fill="#2f7d32"/>
<rect x="90" y="91" width="20" height="20" fill="#1d4d20" opacity="0.35"/>
<rect x="88" y="88" width="20" height="20" rx="3" fill="#2f7d32"/>
<rect x="116" y="3" width="20" height="20" fill="#1d4d20" opacity="0.35"/>
<rect x="114" y="0" width="20" height="20" rx="3" fill="#3f9142"/>
<rect x="138" y="3" width="20" height="20" fill="#1d4d20" opacity="0.35"/>
<rect x="136" y="0" width="20" height="20" rx="3" fill="#3f9142"/>
<rect x="160" y="3" width="20" height="20" fill="#1d4d20" opacity="0.35"/>
<rect x="158" y="0" width="20" height="20" rx="3" fill="#3f9142"/>
<rect x="182" y="3" width="20" height="20" fill="#1d4d20" opacity="0.35"/>
<rect x="180" y="0" width="20" height="20" rx="3" fill="#3f9142"/>
<rect x="204" y="3" width="20" height="20" fill="#1d4d20" opacity="0.35"/>
<rect x="202" y="0" width="20" height="20" rx="3" fill="#3f9142"/>
<rect x="160" y="25" width="20" height="20" fill="#1d4d20" opacity="0.35"/>
<rect x="158" y="22" width="20" height="20" rx="3" fill="#3f9142"/>
<rect x="160" y="47" width="20" height="20" fill="#1d4d20" opacity="0.35"/>
<rect x="158" y="44" width="20" height="20" rx="3" fill="#3f9142"/>
<rect x="160" y="69" width="20" height="20" fill="#1d4d20" opacity="0.35"/>
<rect x="158" y="66" width="20" height="20" rx="3" fill="#3f9142"/>
<rect x="116" y="91" width="20" height="20" fill="#1d4d20" opacity="0.35"/>
<rect x="114" y="88" width="20" height="20" rx="3" fill="#3f9142"/>
<rect x="138" y="91" width="20" height="20" fill="#1d4d20" opacity="0.35"/>
<rect x="136" y="88" width="20" height="20" rx="3" fill="#3f9142"/>
<rect x="160" y="91" width="20" height="20" fill="#1d4d20" opacity="0.35"/>
<rect x="158" y="88" width="20" height="20" rx="3" fill="#3f9142"/>
<rect x="182" y="91" width="20" height="20" fill="#1d4d20" opacity="0.35"/>
<rect x="180" y="88" width="20" height="20" rx="3" fill="#3f9142"/>
<rect x="204" y="91" width="20" height="20" fill="#1d4d20" opacity="0.35"/>
<rect x="202" y="88" width="20" height="20" rx="3" fill="#3f9142"/>
<rect x="230" y="3" width="20" height="20" fill="#1d4d20" opacity="0.35"/>
<rect x="228" y="0" width="20" height="20" rx="3" fill="#4fa653"/>
<rect x="252" y="3" width="20" height="20" fill="#1d4d20" opacity="0.35"/>
<rect x="250" y="0" width="20" height="20" rx="3" fill="#4fa653"/>
<rect x="274" y="3" width="20" height="20" fill="#1d4d20" opacity="0.35"/>
<rect x="272" y="0" width="20" height="20" rx="3" fill="#4fa653"/>
<rect x="296" y="3" width="20" height="20" fill="#1d4d20" opacity="0.35"/>
<rect x="294" y="0" width="20" height="20" rx="3" fill="#4fa653"/>
<rect x="318" y="3" width="20" height="20" fill="#1d4d20" opacity="0.35"/>
<rect x="316" y="0" width="20" height="20" rx="3" fill="#4fa653"/>
<rect x="274" y="25" width="20" height="20" fill="#1d4d20" opacity="0.35"/>
<rect x="272" y="22" width="20" height="20" rx="3" fill="#4fa653"/>
<rect x="274" y="47" width="20" height="20" fill="#1d4d20" opacity="0.35"/>
<rect x="272" y="44" width="20" height="20" rx="3" fill="#4fa653"/>
<rect x="274" y="69" width="20" height="20" fill="#1d4d20" opacity="0.35"/>
<rect x="272" y="66" width="20" height="20" rx="3" fill="#4fa653"/>
<rect x="274" y="91" width="20" height="20" fill="#1d4d20" opacity="0.35"/>
<rect x="272" y="88" width="20" height="20" rx="3" fill="#4fa653"/>
<rect x="344" y="3" width="20" height="20" fill="#1d4d20" opacity="0.35"/>
<rect x="342" y="0" width="20" height="20" rx="3" fill="#63b866"/>
<rect x="366" y="3" width="20" height="20" fill="#1d4d20" opacity="0.35"/>
<rect x="364" y="0" width="20" height="20" rx="3" fill="#63b866"/>
<rect x="388" y="3" width="20" height="20" fill="#1d4d20" opacity="0.35"/>
<rect x="386" y="0" width="20" height="20" rx="3" fill="#63b866"/>
<rect x="410" y="3" width="20" height="20" fill="#1d4d20" opacity="0.35"/>
<rect x="408" y="0" width="20" height="20" rx="3" fill="#63b866"/>
<rect x="432" y="3" width="20" height="20" fill="#1d4d20" opacity="0.35"/>
<rect x="430" y="0" width="20" height="20" rx="3" fill="#63b866"/>
<rect x="344" y="25" width="20" height="20" fill="#1d4d20" opacity="0.35"/>
<rect x="342" y="22" width="20" height="20" rx="3" fill="#63b866"/>
<rect x="344" y="47" width="20" height="20" fill="#1d4d20" opacity="0.35"/>
<rect x="342" y="44" width="20" height="20" rx="3" fill="#63b866"/>
<rect x="366" y="47" width="20" height="20" fill="#1d4d20" opacity="0.35"/>
<rect x="364" y="44" width="20" height="20" rx="3" fill="#63b866"/>
<rect x="388" y="47" width="20" height="20" fill="#1d4d20" opacity="0.35"/>
<rect x="386" y="44" width="20" height="20" rx="3" fill="#63b866"/>
<rect x="410" y="47" width="20" height="20" fill="#1d4d20" opacity="0.35"/>
<rect x="408" y="44" width="20" height="20" rx="3" fill="#63b866"/>
<rect x="344" y="69" width="20" height="20" fill="#1d4d20" opacity="0.35"/>
<rect x="342" y="66" width="20" height="20" rx="3" fill="#63b866"/>
<rect x="344" y="91" width="20" height="20" fill="#1d4d20" opacity="0.35"/>
<rect x="342" y="88" width="20" height="20" rx="3" fill="#63b866"/>
<rect x="366" y="91" width="20" height="20" fill="#1d4d20" opacity="0.35"/>
<rect x="364" y="88" width="20" height="20" rx="3" fill="#63b866"/>
<rect x="388" y="91" width="20" height="20" fill="#1d4d20" opacity="0.35"/>
<rect x="386" y="88" width="20" height="20" rx="3" fill="#63b866"/>
<rect x="410" y="91" width="20" height="20" fill="#1d4d20" opacity="0.35"/>
<rect x="408" y="88" width="20" height="20" rx="3" fill="#63b866"/>
<rect x="432" y="91" width="20" height="20" fill="#1d4d20" opacity="0.35"/>
<rect x="430" y="88" width="20" height="20" rx="3" fill="#63b866"/>
<rect x="458" y="3" width="20" height="20" fill="#1d4d20" opacity="0.35"/>
<rect x="456" y="0" width="20" height="20" rx="3" fill="#7fcb7f"/>
<rect x="480" y="3" width="20" height="20" fill="#1d4d20" opacity="0.35"/>
<rect x="478" y="0" width="20" height="20" rx="3" fill="#7fcb7f"/>
<rect x="502" y="3" width="20" height="20" fill="#1d4d20" opacity="0.35"/>
<rect x="500" y="0" width="20" height="20" rx="3" fill="#7fcb7f"/>
<rect x="524" y="3" width="20" height="20" fill="#1d4d20" opacity="0.35"/>
<rect x="522" y="0" width="20" height="20" rx="3" fill="#7fcb7f"/>
<rect x="458" y="25" width="20" height="20" fill="#1d4d20" opacity="0.35"/>
<rect x="456" y="22" width="20" height="20" rx="3" fill="#7fcb7f"/>
<rect x="546" y="25" width="20" height="20" fill="#1d4d20" opacity="0.35"/>
<rect x="544" y="22" width="20" height="20" rx="3" fill="#7fcb7f"/>
<rect x="458" y="47" width="20" height="20" fill="#1d4d20" opacity="0.35"/>
<rect x="456" y="44" width="20" height="20" rx="3" fill="#7fcb7f"/>
<rect x="480" y="47" width="20" height="20" fill="#1d4d20" opacity="0.35"/>
<rect x="478" y="44" width="20" height="20" rx="3" fill="#7fcb7f"/>
<rect x="502" y="47" width="20" height="20" fill="#1d4d20" opacity="0.35"/>
<rect x="500" y="44" width="20" height="20" rx="3" fill="#7fcb7f"/>
<rect x="524" y="47" width="20" height="20" fill="#1d4d20" opacity="0.35"/>
<rect x="522" y="44" width="20" height="20" rx="3" fill="#7fcb7f"/>
<rect x="458" y="69" width="20" height="20" fill="#1d4d20" opacity="0.35"/>
<rect x="456" y="66" width="20" height="20" rx="3" fill="#7fcb7f"/>
<rect x="524" y="69" width="20" height="20" fill="#1d4d20" opacity="0.35"/>
<rect x="522" y="66" width="20" height="20" rx="3" fill="#7fcb7f"/>
<rect x="458" y="91" width="20" height="20" fill="#1d4d20" opacity="0.35"/>
<rect x="456" y="88" width="20" height="20" rx="3" fill="#7fcb7f"/>
<rect x="546" y="91" width="20" height="20" fill="#1d4d20" opacity="0.35"/>
<rect x="544" y="88" width="20" height="20" rx="3" fill="#7fcb7f"/>
<rect x="594" y="3" width="20" height="20" fill="#1d4d20" opacity="0.35"/>
<rect x="592" y="0" width="20" height="20" rx="3" fill="#3f9142"/>
<rect x="616" y="3" width="20" height="20" fill="#1d4d20" opacity="0.35"/>
<rect x="614" y="0" width="20" height="20" rx="3" fill="#3f9142"/>
<rect x="638" y="3" width="20" height="20" fill="#1d4d20" opacity="0.35"/>
<rect x="636" y="0" width="20" height="20" rx="3" fill="#3f9142"/>
<rect x="572" y="25" width="20" height="20" fill="#1d4d20" opacity="0.35"/>
<rect x="570" y="22" width="20" height="20" rx="3" fill="#3f9142"/>
<rect x="660" y="25" width="20" height="20" fill="#1d4d20" opacity="0.35"/>
<rect x="658" y="22" width="20" height="20" rx="3" fill="#3f9142"/>
<rect x="572" y="47" width="20" height="20" fill="#1d4d20" opacity="0.35"/>
<rect x="570" y="44" width="20" height="20" rx="3" fill="#3f9142"/>
<rect x="594" y="47" width="20" height="20" fill="#1d4d20" opacity="0.35"/>
<rect x="592" y="44" width="20" height="20" rx="3" fill="#3f9142"/>
<rect x="616" y="47" width="20" height="20" fill="#1d4d20" opacity="0.35"/>
<rect x="614" y="44" width="20" height="20" rx="3" fill="#3f9142"/>
<rect x="638" y="47" width="20" height="20" fill="#1d4d20" opacity="0.35"/>
<rect x="636" y="44" width="20" height="20" rx="3" fill="#3f9142"/>
<rect x="660" y="47" width="20" height="20" fill="#1d4d20" opacity="0.35"/>
<rect x="658" y="44" width="20" height="20" rx="3" fill="#3f9142"/>
<rect x="572" y="69" width="20" height="20" fill="#1d4d20" opacity="0.35"/>
<rect x="570" y="66" width="20" height="20" rx="3" fill="#3f9142"/>
<rect x="660" y="69" width="20" height="20" fill="#1d4d20" opacity="0.35"/>
<rect x="658" y="66" width="20" height="20" rx="3" fill="#3f9142"/>
<rect x="572" y="91" width="20" height="20" fill="#1d4d20" opacity="0.35"/>
<rect x="570" y="88" width="20" height="20" rx="3" fill="#3f9142"/>
<rect x="660" y="91" width="20" height="20" fill="#1d4d20" opacity="0.35"/>
<rect x="658" y="88" width="20" height="20" rx="3" fill="#3f9142"/>
<rect x="686" y="3" width="20" height="20" fill="#1d4d20" opacity="0.35"/>
<rect x="684" y="0" width="20" height="20" rx="3" fill="#2f7d32"/>
<rect x="708" y="3" width="20" height="20" fill="#1d4d20" opacity="0.35"/>
<rect x="706" y="0" width="20" height="20" rx="3" fill="#2f7d32"/>
<rect x="730" y="3" width="20" height="20" fill="#1d4d20" opacity="0.35"/>
<rect x="728" y="0" width="20" height="20" rx="3" fill="#2f7d32"/>
<rect x="752" y="3" width="20" height="20" fill="#1d4d20" opacity="0.35"/>
<rect x="750" y="0" width="20" height="20" rx="3" fill="#2f7d32"/>
<rect x="774" y="3" width="20" height="20" fill="#1d4d20" opacity="0.35"/>
<rect x="772" y="0" width="20" height="20" rx="3" fill="#2f7d32"/>
<rect x="730" y="25" width="20" height="20" fill="#1d4d20" opacity="0.35"/>
<rect x="728" y="22" width="20" height="20" rx="3" fill="#2f7d32"/>
<rect x="730" y="47" width="20" height="20" fill="#1d4d20" opacity="0.35"/>
<rect x="728" y="44" width="20" height="20" rx="3" fill="#2f7d32"/>
<rect x="730" y="69" width="20" height="20" fill="#1d4d20" opacity="0.35"/>
<rect x="728" y="66" width="20" height="20" rx="3" fill="#2f7d32"/>
<rect x="730" y="91" width="20" height="20" fill="#1d4d20" opacity="0.35"/>
<rect x="728" y="88" width="20" height="20" rx="3" fill="#2f7d32"/>
<rect x="822" y="3" width="20" height="20" fill="#1d4d20" opacity="0.35"/>
<rect x="820" y="0" width="20" height="20" rx="3" fill="#63b866"/>
<rect x="844" y="3" width="20" height="20" fill="#1d4d20" opacity="0.35"/>
<rect x="842" y="0" width="20" height="20" rx="3" fill="#63b866"/>
<rect x="866" y="3" width="20" height="20" fill="#1d4d20" opacity="0.35"/>
<rect x="864" y="0" width="20" height="20" rx="3" fill="#63b866"/>
<rect x="800" y="25" width="20" height="20" fill="#1d4d20" opacity="0.35"/>
<rect x="798" y="22" width="20" height="20" rx="3" fill="#63b866"/>
<rect x="888" y="25" width="20" height="20" fill="#1d4d20" opacity="0.35"/>
<rect x="886" y="22" width="20" height="20" rx="3" fill="#63b866"/>
<rect x="800" y="47" width="20" height="20" fill="#1d4d20" opacity="0.35"/>
<rect x="798" y="44" width="20" height="20" rx="3" fill="#63b866"/>
<rect x="822" y="47" width="20" height="20" fill="#1d4d20" opacity="0.35"/>
<rect x="820" y="44" width="20" height="20" rx="3" fill="#63b866"/>
<rect x="844" y="47" width="20" height="20" fill="#1d4d20" opacity="0.35"/>
<rect x="842" y="44" width="20" height="20" rx="3" fill="#63b866"/>
<rect x="866" y="47" width="20" height="20" fill="#1d4d20" opacity="0.35"/>
<rect x="864" y="44" width="20" height="20" rx="3" fill="#63b866"/>
<rect x="888" y="47" width="20" height="20" fill="#1d4d20" opacity="0.35"/>
<rect x="886" y="44" width="20" height="20" rx="3" fill="#63b866"/>
<rect x="800" y="69" width="20" height="20" fill="#1d4d20" opacity="0.35"/>
<rect x="798" y="66" width="20" height="20" rx="3" fill="#63b866"/>
<rect x="888" y="69" width="20" height="20" fill="#1d4d20" opacity="0.35"/>
<rect x="886" y="66" width="20" height="20" rx="3" fill="#63b866"/>
<rect x="800" y="91" width="20" height="20" fill="#1d4d20" opacity="0.35"/>
<rect x="798" y="88" width="20" height="20" rx="3" fill="#63b866"/>
<rect x="888" y="91" width="20" height="20" fill="#1d4d20" opacity="0.35"/>
<rect x="886" y="88" width="20" height="20" rx="3" fill="#63b866"/>
</svg>