<svg xmlns="http://www.w3.org/2000/svg" viewBox="0 0 812 364" width="812" height="364">
<rect x="476" y="112" width="14" height="14" fill="#237f40"/>
<rect x="490" y="112" width="14" height="14" fill="#227d3f"/>
<rect x="504" y="112" width="14" height="14" fill="#207b3d"/>
<rect x="518" y="112" width="14" height="14" fill="#1f7a3d"/>
<rect x="532" y="112" width="14" height="14" fill="#1f7a3d"/>
<rect x="546" y="112" width="14" height="14" fill="#1f7a3d"/>
<rect x="560" y="112" width="14" height="14" fill="#1f7a3d"/>
<rect x="280" y="126" width="14" height="14" fill="#5bc265"/>
<rect x="294" y="126" width="14" height="14" fill="#59c064"/>
<rect x="308" y="126" width="14" height="14" fill="#57bd62"/>
<rect x="322" y="126" width="14" height="14" fill="#54b960"/>
<rect x="336" y="126" width="14" height="14" fill="#50b55e"/>
<rect x="350" y="126" width="14" height="14" fill="#4cb05b"/>
<rect x="364" y="126" width="14" height="14" fill="#47aa58"/>
<rect x="378" y="126" width="14" height="14" fill="#42a454"/>
<rect x="392" y="126" width="14" height="14" fill="#3c9d51"/>
<rect x="448" y="126" width="14" height="14" fill="#2e8c47"/>
<rect x="462" y="126" width="14" height="14" fill="#308f49"/>
<rect x="476" y="126" width="14" height="14" fill="#319049"/>
<rect x="490" y="126" width="14" height="14" fill="#319049"/>
<rect x="504" y="126" width="14" height="14" fill="#308f48"/>
<rect x="518" y="126" width="14" height="14" fill="#2d8b46"/>
<rect x="532" y="126" width="14" height="14" fill="#288543"/>
<rect x="546" y="126" width="14" height="14" fill="#217c3e"/>
<rect x="560" y="126" width="14" height="14" fill="#1f7a3d"/>
<rect x="574" y="126" width="14" height="14" fill="#1f7a3d"/>
<rect x="588" y="126" width="14" height="14" fill="#1f7a3d"/>
<rect x="238" y="140" width="14" height="14" fill="#56bd62"/>
<rect x="252" y="140" width="14" height="14" fill="#5ac165"/>
<rect x="266" y="140" width="14" height="14" fill="#5cc366"/>
<rect x="280" y="140" width="14" height="14" fill="#5dc567"/>
<rect x="294" y="140" width="14" height="14" fill="#5dc467"/>
<rect x="308" y="140" width="14" height="14" fill="#5cc366"/>
<rect x="322" y="140" width="14" height="14" fill="#59c064"/>
<rect x="336" y="140" width="14" height="14" fill="#56bd62"/>
<rect x="350" y="140" width="14" height="14" fill="#53b860"/>
<rect x="364" y="140" width="14" height="14" fill="#4eb35d"/>
<rect x="378" y="140" width="14" height="14" fill="#49ad59"/>
<rect x="392" y="140" width="14" height="14" fill="#43a655"/>
<rect x="406" y="140" width="14" height="14" fill="#3d9e51"/>
<rect x="420" y="140" width="14" height="14" fill="#36964d"/>
<rect x="434" y="140" width="14" height="14" fill="#32914a"/>
<rect x="448" y="140" width="14" height="14" fill="#36954c"/>
<rect x="462" y="140" width="14" height="14" fill="#39994e"/>
<rect x="476" y="140" width="14" height="14" fill="#3c9d51"/>
<rect x="490" y="140" width="14" height="14" fill="#3ea052"/>
<rect x="504" y="140" width="14" height="14" fill="#3fa052"/>
<rect x="518" y="140" width="14" height="14" fill="#3d9e51"/>
<rect x="532" y="140" width="14" height="14" fill="#37974d"/>
<rect x="546" y="140" width="14" height="14" fill="#2e8c47"/>
<rect x="560" y="140" width="14" height="14" fill="#248040"/>
<rect x="574" y="140" width="14" height="14" fill="#1f7a3d"/>
<rect x="588" y="140" width="14" height="14" fill="#1f7a3d"/>
<rect x="602" y="140" width="14" height="14" fill="#1f7a3d"/>
<rect x="210" y="154" width="14" height="14" fill="#4baf5b"/>
<rect x="224" y="154" width="14" height="14" fill="#51b65e"/>
<rect x="238" y="154" width="14" height="14" fill="#55bb61"/>
<rect x="252" y="154" width="14" height="14" fill="#59c064"/>
<rect x="266" y="154" width="14" height="14" fill="#5cc466"/>
<rect x="280" y="154" width="14" height="14" fill="#5ec667"/>
<rect x="294" y="154" width="14" height="14" fill="#5fc768"/>
<rect x="308" y="154" width="14" height="14" fill="#5fc768"/>
<rect x="322" y="154" width="14" height="14" fill="#5ec567"/>
<rect x="336" y="154" width="14" height="14" fill="#5bc265"/>
<rect x="350" y="154" width="14" height="14" fill="#58be63"/>
<rect x="364" y="154" width="14" height="14" fill="#54b960"/>
<rect x="378" y="154" width="14" height="14" fill="#4eb35d"/>
<rect x="392" y="154" width="14" height="14" fill="#48ac59"/>
<rect x="406" y="154" width="14" height="14" fill="#42a455"/>
<rect x="420" y="154" width="14" height="14" fill="#3b9c50"/>
<rect x="434" y="154" width="14" height="14" fill="#34934b"/>
<rect x="448" y="154" width="14" height="14" fill="#36964c"/>
<rect x="462" y="154" width="14" height="14" fill="#3a9b4f"/>
<rect x="476" y="154" width="14" height="14" fill="#3fa052"/>
<rect x="490" y="154" width="14" height="14" fill="#43a555"/>
<rect x="504" y="154" width="14" height="14" fill="#47ab58"/>
<rect x="518" y="154" width="14" height="14" fill="#4cb05b"/>
<rect x="532" y="154" width="14" height="14" fill="#40a153"/>
<rect x="546" y="154" width="14" height="14" fill="#33924b"/>
<rect x="560" y="154" width="14" height="14" fill="#278442"/>
<rect x="574" y="154" width="14" height="14" fill="#1f7a3d"/>
<rect x="588" y="154" width="14" height="14" fill="#1f7a3d"/>
<rect x="602" y="154" width="14" height="14" fill="#1f7a3d"/>
<rect x="616" y="154" width="14" height="14" fill="#1f7a3d"/>
<rect x="196" y="168" width="14" height="14" fill="#42a454"/>
<rect x="210" y="168" width="14" height="14" fill="#48ac59"/>
<rect x="224" y="168" width="14" height="14" fill="#4eb25c"/>
<rect x="238" y="168" width="14" height="14" fill="#53b860"/>
<rect x="252" y="168" width="14" height="14" fill="#57be63"/>
<rect x="266" y="168" width="14" height="14" fill="#5bc265"/>
<rect x="280" y="168" width="14" height="14" fill="#5ec667"/>
<rect x="294" y="168" width="14" height="14" fill="#60c869"/>
<rect x="308" y="168" width="14" height="14" fill="#62c86a"/>
<rect x="322" y="168" width="14" height="14" fill="#61c869"/>
<rect x="336" y="168" width="14" height="14" fill="#5fc768"/>
<rect x="350" y="168" width="14" height="14" fill="#5cc366"/>
<rect x="364" y="168" width="14" height="14" fill="#57be63"/>
<rect x="378" y="168" width="14" height="14" fill="#52b75f"/>
<rect x="392" y="168" width="14" height="14" fill="#4cb05b"/>
<rect x="406" y="168" width="14" height="14" fill="#45a756"/>
<rect x="420" y="168" width="14" height="14" fill="#3d9f51"/>
<rect x="434" y="168" width="14" height="14" fill="#36954c"/>
<rect x="448" y="168" width="14" height="14" fill="#2e8d47"/>
<rect x="462" y="168" width="14" height="14" fill="#32914a"/>
<rect x="476" y="168" width="14" height="14" fill="#36954c"/>
<rect x="490" y="168" width="14" height="14" fill="#38984e"/>
<rect x="504" y="168" width="14" height="14" fill="#399a4f"/>
<rect x="518" y="168" width="14" height="14" fill="#37974d"/>
<rect x="532" y="168" width="14" height="14" fill="#32904a"/>
<rect x="546" y="168" width="14" height="14" fill="#298644"/>
<rect x="560" y="168" width="14" height="14" fill="#1f7a3d"/>
<rect x="574" y="168" width="14" height="14" fill="#1f7a3d"/>
<rect x="588" y="168" width="14" height="14" fill="#1f7a3d"/>
<rect x="602" y="168" width="14" height="14" fill="#1f7a3d"/>
<rect x="182" y="182" width="14" height="14" fill="#37964d"/>
<rect x="196" y="182" width="14" height="14" fill="#3d9e51"/>
<rect x="210" y="182" width="14" height="14" fill="#43a655"/>
<rect x="224" y="182" width="14" height="14" fill="#49ad59"/>
<rect x="238" y="182" width="14" height="14" fill="#4fb35d"/>
<rect x="252" y="182" width="14" height="14" fill="#53b960"/>
<rect x="266" y="182" width="14" height="14" fill="#58bf63"/>
<rect x="280" y="182" width="14" height="14" fill="#5cc366"/>
<rect x="294" y="182" width="14" height="14" fill="#5fc768"/>
<rect x="308" y="182" width="14" height="14" fill="#63c96a"/>
<rect x="322" y="182" width="14" height="14" fill="#65ca6b"/>
<rect x="336" y="182" width="14" height="14" fill="#63c96b"/>
<rect x="350" y="182" width="14" height="14" fill="#5fc768"/>
<rect x="364" y="182" width="14" height="14" fill="#5ac064"/>
<rect x="378" y="182" width="14" height="14" fill="#53b960"/>
<rect x="392" y="182" width="14" height="14" fill="#4cb05b"/>
<rect x="406" y="182" width="14" height="14" fill="#45a756"/>
<rect x="420" y="182" width="14" height="14" fill="#3d9e51"/>
<rect x="434" y="182" width="14" height="14" fill="#35944c"/>
<rect x="448" y="182" width="14" height="14" fill="#2d8b46"/>
<rect x="462" y="182" width="14" height="14" fill="#258141"/>
<rect x="476" y="182" width="14" height="14" fill="#258141"/>
<rect x="490" y="182" width="14" height="14" fill="#268241"/>
<rect x="504" y="182" width="14" height="14" fill="#258141"/>
<rect x="518" y="182" width="14" height="14" fill="#227e3f"/>
<rect x="532" y="182" width="14" height="14" fill="#1f7a3d"/>
<rect x="546" y="182" width="14" height="14" fill="#1f7a3d"/>
<rect x="560" y="182" width="14" height="14" fill="#1f7a3d"/>
<rect x="574" y="182" width="14" height="14" fill="#1f7a3d"/>
<rect x="588" y="182" width="14" height="14" fill="#1f7a3d"/>
<rect x="182" y="196" width="14" height="14" fill="#308e48"/>
<rect x="196" y="196" width="14" height="14" fill="#36964c"/>
<rect x="210" y="196" width="14" height="14" fill="#3c9d51"/>
<rect x="224" y="196" width="14" height="14" fill="#42a454"/>
<rect x="238" y="196" width="14" height="14" fill="#47ab58"/>
<rect x="252" y="196" width="14" height="14" fill="#4db15c"/>
<rect x="266" y="196" width="14" height="14" fill="#51b75f"/>
<rect x="280" y="196" width="14" height="14" fill="#56bc62"/>
<rect x="294" y="196" width="14" height="14" fill="#5ac165"/>
<rect x="308" y="196" width="14" height="14" fill="#5ec667"/>
<rect x="322" y="196" width="14" height="14" fill="#63c96a"/>
<rect x="336" y="196" width="14" height="14" fill="#67cb6d"/>
<rect x="350" y="196" width="14" height="14" fill="#5ec667"/>
<rect x="364" y="196" width="14" height="14" fill="#57bd63"/>
<rect x="378" y="196" width="14" height="14" fill="#50b45e"/>
<rect x="392" y="196" width="14" height="14" fill="#48ab59"/>
<rect x="406" y="196" width="14" height="14" fill="#40a253"/>
<rect x="420" y="196" width="14" height="14" fill="#39994e"/>
<rect x="434" y="196" width="14" height="14" fill="#318f49"/>
<rect x="448" y="196" width="14" height="14" fill="#298643"/>
<rect x="462" y="196" width="14" height="14" fill="#207c3e"/>
<rect x="476" y="196" width="14" height="14" fill="#1f7a3d"/>
<rect x="490" y="196" width="14" height="14" fill="#1f7a3d"/>
<rect x="504" y="196" width="14" height="14" fill="#1f7a3d"/>
<rect x="518" y="196" width="14" height="14" fill="#1f7a3d"/>
<rect x="532" y="196" width="14" height="14" fill="#1f7a3d"/>
<rect x="546" y="196" width="14" height="14" fill="#1f7a3d"/>
<rect x="560" y="196" width="14" height="14" fill="#1f7a3d"/>
<rect x="182" y="210" width="14" height="14" fill="#268342"/>
<rect x="196" y="210" width="14" height="14" fill="#2c8a46"/>
<rect x="210" y="210" width="14" height="14" fill="#32914a"/>
<rect x="224" y="210" width="14" height="14" fill="#38984e"/>
<rect x="238" y="210" width="14" height="14" fill="#3d9e51"/>
<rect x="252" y="210" width="14" height="14" fill="#42a455"/>
<rect x="266" y="210" width="14" height="14" fill="#47aa58"/>
<rect x="280" y="210" width="14" height="14" fill="#4baf5a"/>
<rect x="294" y="210" width="14" height="14" fill="#4eb35d"/>
<rect x="308" y="210" width="14" height="14" fill="#51b65f"/>
<rect x="322" y="210" width="14" height="14" fill="#53b860"/>
<rect x="336" y="210" width="14" height="14" fill="#52b860"/>
<rect x="350" y="210" width="14" height="14" fill="#50b45e"/>
<rect x="364" y="210" width="14" height="14" fill="#4baf5a"/>
<rect x="378" y="210" width="14" height="14" fill="#45a857"/>
<rect x="392" y="210" width="14" height="14" fill="#3ea052"/>
<rect x="406" y="210" width="14" height="14" fill="#37974d"/>
<rect x="420" y="210" width="14" height="14" fill="#308f49"/>
<rect x="434" y="210" width="14" height="14" fill="#298644"/>
<rect x="448" y="210" width="14" height="14" fill="#217d3e"/>
<rect x="462" y="210" width="14" height="14" fill="#1f7a3d"/>
<rect x="476" y="210" width="14" height="14" fill="#1f7a3d"/>
<rect x="490" y="210" width="14" height="14" fill="#1f7a3d"/>
<rect x="196" y="224" width="14" height="14" fill="#217c3e"/>
<rect x="210" y="224" width="14" height="14" fill="#268342"/>
<rect x="224" y="224" width="14" height="14" fill="#2b8945"/>
<rect x="238" y="224" width="14" height="14" fill="#308f48"/>
<rect x="252" y="224" width="14" height="14" fill="#34944b"/>
<rect x="266" y="224" width="14" height="14" fill="#38984e"/>
<rect x="280" y="224" width="14" height="14" fill="#3c9c50"/>
<rect x="294" y="224" width="14" height="14" fill="#3e9f52"/>
<rect x="308" y="224" width="14" height="14" fill="#40a253"/>
<rect x="322" y="224" width="14" height="14" fill="#40a253"/>
<rect x="336" y="224" width="14" height="14" fill="#40a153"/>
<rect x="350" y="224" width="14" height="14" fill="#3e9f52"/>
<rect x="364" y="224" width="14" height="14" fill="#3a9b4f"/>
<rect x="378" y="224" width="14" height="14" fill="#36964c"/>
<rect x="392" y="224" width="14" height="14" fill="#318f49"/>
<rect x="406" y="224" width="14" height="14" fill="#2b8845"/>
<rect x="420" y="224" width="14" height="14" fill="#248141"/>
<rect x="434" y="224" width="14" height="14" fill="#1f7a3d"/>
<rect x="448" y="224" width="14" height="14" fill="#1f7a3d"/>
<rect x="462" y="224" width="14" height="14" fill="#1f7a3d"/>
<rect x="476" y="224" width="14" height="14" fill="#1f7a3d"/>
<rect x="210" y="238" width="14" height="14" fill="#1f7a3d"/>
<rect x="224" y="238" width="14" height="14" fill="#1f7a3d"/>
<rect x="238" y="238" width="14" height="14" fill="#217d3e"/>
<rect x="252" y="238" width="14" height="14" fill="#258141"/>
<rect x="266" y="238" width="14" height="14" fill="#288543"/>
<rect x="280" y="238" width="14" height="14" fill="#2b8845"/>
<rect x="294" y="238" width="14" height="14" fill="#2c8a46"/>
<rect x="308" y="238" width="14" height="14" fill="#2e8b47"/>
<rect x="322" y="238" width="14" height="14" fill="#2e8c47"/>
<rect x="336" y="238" width="14" height="14" fill="#2d8b46"/>
<rect x="350" y="238" width="14" height="14" fill="#2b8945"/>
<rect x="364" y="238" width="14" height="14" fill="#298543"/>
<rect x="378" y="238" width="14" height="14" fill="#258141"/>
<rect x="392" y="238" width="14" height="14" fill="#217c3e"/>
<rect x="406" y="238" width="14" height="14" fill="#1f7a3d"/>
<rect x="420" y="238" width="14" height="14" fill="#1f7a3d"/>
<rect x="434" y="238" width="14" height="14" fill="#1f7a3d"/>
<rect x="448" y="238" width="14" height="14" fill="#1f7a3d"/>
<rect x="462" y="238" width="14" height="14" fill="#1f7a3d"/>
<rect x="238" y="252" width="14" height="14" fill="#1f7a3d"/>
<rect x="252" y="252" width="14" height="14" fill="#1f7a3d"/>
<rect x="266" y="252" width="14" height="14" fill="#1f7a3d"/>
<rect x="280" y="252" width="14" height="14" fill="#1f7a3d"/>
<rect x="294" y="252" width="14" height="14" fill="#1f7a3d"/>
<rect x="308" y="252" width="14" height="14" fill="#1f7a3d"/>
<rect x="322" y="252" width="14" height="14" fill="#1f7a3d"/>
<rect x="336" y="252" width="14" height="14" fill="#1f7a3d"/>
<rect x="350" y="252" width="14" height="14" fill="#1f7a3d"/>
<rect x="364" y="252" width="14" height="14" fill="#1f7a3d"/>
<rect x="378" y="252" width="14" height="14" fill="#1f7a3d"/>
<rect x="392" y="252" width="14" height="14" fill="#1f7a3d"/>
<rect x="406" y="252" width="14" height="14" fill="#1f7a3d"/>
<rect x="420" y="252" width="14" height="14" fill="#1f7a3d"/>
<rect x="434" y="252" width="14" height="14" fill="#1f7a3d"/>
<rect x="280" y="266" width="14" height="14" fill="#1f7a3d"/>
<rect x="294" y="266" width="14" height="14" fill="#1f7a3d"/>
<rect x="308" y="266" width="14" height="14" fill="#1f7a3d"/>
<rect x="322" y="266" width="14" height="14" fill="#1f7a3d"/>
<rect x="336" y="266" width="14" height="14" fill="#1f7a3d"/>
<rect x="350" y="266" width="14" height="14" fill="#1f7a3d"/>
<rect x="364" y="266" width="14" height="14" fill="#1f7a3d"/>
<rect x="378" y="266" width="14" height="14" fill="#1f7a3d"/>
<rect x="392" y="266" width="14" height="14" fill="#1f7a3d"/>
<rect x="224" y="140" width="14" height="14" fill="#2f7d32"/>
<rect x="238" y="140" width="14" height="14" fill="#2f7d32"/>
<rect x="252" y="140" width="14" height="14" fill="#2f7d32"/>
<rect x="266" y="140" width="14" height="14" fill="#2f7d32"/>
<rect x="280" y="140" width="14" height="14" fill="#2f7d32"/>
<rect x="196" y="154" width="14" height="14" fill="#2f7d32"/>
<rect x="210" y="154" width="14" height="14" fill="#2f7d32"/>
<rect x="224" y="154" width="14" height="14" fill="#2f7d32"/>
<rect x="238" y="154" width="14" height="14" fill="#d9fca0"/>
<rect x="252" y="154" width="14" height="14" fill="#d9fca0"/>
<rect x="266" y="154" width="14" height="14" fill="#d9fca0"/>
<rect x="280" y="154" width="14" height="14" fill="#2f7d32"/>
<rect x="294" y="154" width="14" height="14" fill="#2f7d32"/>
<rect x="308" y="154" width="14" height="14" fill="#2f7d32"/>
<rect x="182" y="168" width="14" height="14" fill="#2f7d32"/>
<rect x="196" y="168" width="14" height="14" fill="#2f7d32"/>
<rect x="210" y="168" width="14" height="14" fill="#2f7d32"/>
<rect x="224" y="168" width="14" height="14" fill="#d9fca0"/>
<rect x="238" y="168" width="14" height="14" fill="#0d2b12"/>
<rect x="252" y="168" width="14" height="14" fill="#0d2b12"/>
<rect x="266" y="168" width="14" height="14" fill="#0d2b12"/>
<rect x="280" y="168" width="14" height="14" fill="#d9fca0"/>
<rect x="294" y="168" width="14" height="14" fill="#2f7d32"/>
<rect x="308" y="168" width="14" height="14" fill="#2f7d32"/>
<rect x="322" y="168" width="14" height="14" fill="#2f7d32"/>
<rect x="196" y="182" width="14" height="14" fill="#2f7d32"/>
<rect x="210" y="182" width="14" height="14" fill="#2f7d32"/>
<rect x="224" y="182" width="14" height="14" fill="#2f7d32"/>
<rect x="238" y="182" width="14" height="14" fill="#d9fca0"/>
<rect x="252" y="182" width="14" height="14" fill="#d9fca0"/>
<rect x="266" y="182" width="14" height="14" fill="#d9fca0"/>
<rect x="280" y="182" width="14" height="14" fill="#2f7d32"/>
<rect x="294" y="182" width="14" height="14" fill="#2f7d32"/>
<rect x="308" y="182" width="14" height="14" fill="#2f7d32"/>
<rect x="224" y="196" width="14" height="14" fill="#2f7d32"/>
<rect x="238" y="196" width="14" height="14" fill="#2f7d32"/>
<rect x="252" y="196" width="14" height="14" fill="#2f7d32"/>
<rect x="266" y="196" width="14" height="14" fill="#2f7d32"/>
<rect x="280" y="196" width="14" height="14" fill="#2f7d32"/>
<rect x="196" y="154" width="14" height="14" fill="#e8d36a"/>
<rect x="196" y="140" width="14" height="14" fill="#e8d36a"/>
<rect x="266" y="126" width="14" height="14" fill="#e8d36a"/>
<rect x="266" y="112" width="14" height="14" fill="#e8d36a"/>
<rect x="336" y="112" width="14" height="14" fill="#e8d36a"/>
<rect x="336" y="98" width="14" height="14" fill="#e8d36a"/>
<rect x="406" y="126" width="14" height="14" fill="#e8d36a"/>
<rect x="406" y="112" width="14" height="14" fill="#e8d36a"/>
<rect x="476" y="98" width="14" height="14" fill="#e8d36a"/>
<rect x="476" y="84" width="14" height="14" fill="#e8d36a"/>
</svg>